<svg aria-hidden="true" style="position: absolute; width: 0; height: 0; overflow: hidden;" version="1.1" xmlns="http://www.w3.org/2000/svg" xmlns:xlink="http://www.w3.org/1999/xlink">
<defs>
<symbol id="icon-Logo" viewBox="0 0 38 32">
<path fill="#c99e71" style="fill: var(--color1, #c99e71)" d="M19.833 11.421c-1.124-0.983-1.195-1.894-0.285-3.022 0.128-0.159 0.27-0.318 0.384-0.492 0.839-1.215 0.555-2.43-0.726-3.095-0.1-0.058-0.213-0.116-0.341-0.174 0.014 0.072 0.014 0.116 0.028 0.145 0.427 0.839 0.341 1.605-0.256 2.314-0.1 0.116-0.185 0.246-0.256 0.376-1.081 1.75-0.014 3.63 1.451 3.948z"></path>
<path fill="#c99e71" style="fill: var(--color1, #c99e71)" d="M17.614 9.932c-0.654-0.709-0.669-1.33-0.085-2.082 0.085-0.101 0.171-0.217 0.242-0.333 0.541-0.81 0.398-1.663-0.356-2.155-0.057-0.043-0.128-0.087-0.199-0.13 0 0.043 0 0.072 0.014 0.101 0.242 0.578 0.157 1.114-0.213 1.591-0.057 0.072-0.114 0.159-0.171 0.246-0.683 1.186-0.1 2.516 0.768 2.762z"></path>
<path fill="#c99e71" style="fill: var(--color1, #c99e71)" d="M20.374 10.568c-0.185-0.318-0.27-0.651-0.085-0.998 0.085-0.159 0.199-0.304 0.299-0.434 0.228-0.304 0.27-0.622 0.128-0.94-0.228 0.318-0.441 0.622-0.669 0.94-0.427 0.578-0.341 1.056 0.327 1.432z"></path>
<path fill="#c99e71" style="fill: var(--color1, #c99e71)" d="M3.998 19.606v-0.766l-0.043-0.014c-0.285-0.116-0.555-0.188-0.825-0.188-0.398 0-0.726 0.145-0.953 0.434-0.242 0.289-0.356 0.68-0.37 1.171 0 0.492 0.114 0.897 0.341 1.171 0.228 0.289 0.555 0.434 0.953 0.448h0.014c0.285 0 0.555-0.072 0.825-0.217l0.043-0.014v-0.463l-0.1 0.058c-0.27 0.145-0.526 0.202-0.754 0.202-0.27 0-0.47-0.101-0.612-0.289s-0.228-0.492-0.213-0.911c0-0.39 0.071-0.68 0.228-0.868 0.142-0.188 0.341-0.275 0.612-0.275 0.171 0 0.327 0.029 0.441 0.072v0.463l0.413-0.015z"></path>
<path fill="#c99e71" style="fill: var(--color1, #c99e71)" d="M6.303 21.891c0.37 0 0.669-0.145 0.882-0.434s0.327-0.694 0.327-1.2c0-0.477-0.1-0.868-0.299-1.142-0.199-0.289-0.484-0.434-0.854-0.434s-0.669 0.145-0.896 0.434c-0.213 0.289-0.327 0.68-0.327 1.171s0.1 0.897 0.313 1.186c0.213 0.26 0.498 0.405 0.854 0.419zM5.819 19.375c0.128-0.174 0.299-0.275 0.526-0.26 0.228 0 0.398 0.087 0.512 0.275 0.128 0.188 0.185 0.477 0.185 0.868 0 0.405-0.071 0.709-0.199 0.897s-0.299 0.289-0.512 0.289c-0.228 0-0.384-0.101-0.512-0.289-0.128-0.202-0.185-0.506-0.185-0.897-0.014-0.405 0.057-0.709 0.185-0.882z"></path>
<path fill="#c99e71" style="fill: var(--color1, #c99e71)" d="M8.65 21.428v0.419l1.167 0.014v-0.419h-0.37v-0.911h0.455v0.333h0.398l0.014-1.012h-0.413v0.275l-0.455-0.014 0.014-0.954h0.811v0.39h0.413l0.014-0.795-2.020-0.014v0.419h0.313l-0.014 2.27h-0.327z"></path>
<path fill="#c99e71" style="fill: var(--color1, #c99e71)" d="M11.624 21.457v0.419h1.152l0.014-0.419h-0.384l0.014-0.897h0.441v0.333h0.413v-1.027h-0.398v0.275h-0.455v-0.954h0.825l-0.014 0.39h0.427l0.014-0.795-2.034-0.029v0.419h0.327l-0.014 2.285h-0.327z"></path>
<path fill="#c99e71" style="fill: var(--color1, #c99e71)" d="M14.597 21.472l-0.014 0.419 2.077 0.015 0.014-0.795h-0.427v0.376h-0.868v-0.954h0.398v0.333h0.413v-1.027h-0.398v0.275h-0.398v-0.911l0.811 0.014v0.376l0.427 0.014v-0.81l-2.020-0.014v0.419h0.327l-0.028 2.285-0.313-0.014z"></path>
<path fill="#c99e71" style="fill: var(--color1, #c99e71)" d="M17.727 21.501l-0.014 0.419 2.077 0.014 0.014-0.795-0.427-0.014v0.39l-0.868-0.014v-0.954h0.398v0.333h0.413v-1.012h-0.398v0.275l-0.413-0.014 0.014-0.897h0.811v0.39h0.427v-0.795l-2.020-0.014v0.405l0.327 0.015-0.028 2.27h-0.313z"></path>
<path fill="#c99e71" style="fill: var(--color1, #c99e71)" d="M26.022 19.722v-0.723l-0.043-0.014c-0.228-0.116-0.47-0.174-0.74-0.174-0.313 0-0.555 0.072-0.74 0.231s-0.285 0.361-0.285 0.622c0 0.145 0.028 0.275 0.071 0.376 0.057 0.101 0.114 0.188 0.199 0.26s0.171 0.13 0.27 0.174c0.1 0.043 0.199 0.087 0.285 0.116 0.1 0.043 0.185 0.087 0.27 0.116 0.071 0.043 0.128 0.072 0.185 0.116 0.043 0.043 0.085 0.087 0.1 0.145 0.028 0.043 0.043 0.116 0.043 0.188 0 0.145-0.043 0.246-0.142 0.333s-0.242 0.116-0.413 0.116c-0.171 0-0.313-0.014-0.427-0.058v-0.434h-0.427v0.738l0.043 0.015c0.242 0.101 0.498 0.159 0.782 0.159h0.014c0.313 0 0.569-0.087 0.754-0.246 0.199-0.159 0.299-0.39 0.299-0.665 0-0.159-0.028-0.289-0.071-0.39s-0.114-0.188-0.199-0.26c-0.071-0.072-0.171-0.13-0.27-0.174s-0.199-0.087-0.299-0.13c-0.1-0.043-0.185-0.072-0.27-0.116-0.071-0.029-0.142-0.072-0.185-0.101-0.043-0.043-0.085-0.087-0.114-0.13s-0.043-0.101-0.043-0.174c0-0.116 0.043-0.202 0.128-0.289s0.228-0.13 0.398-0.116c0.142 0 0.27 0.029 0.37 0.058v0.419l0.455 0.014z"></path>
<path fill="#c99e71" style="fill: var(--color1, #c99e71)" d="M27.174 21.573v0.419l1.11 0.014v-0.419h-0.327l0.014-0.969 1.309 0.014v0.954h-0.327v0.419h1.096l0.014-0.405h-0.327l0.014-2.285h0.327v-0.419h-1.11v0.405l0.327 0.014-0.014 0.897-1.309-0.014v-0.897h0.327v-0.419h-1.096l-0.014 0.419h0.327l-0.014 2.27h-0.327z"></path>
<path fill="#c99e71" style="fill: var(--color1, #c99e71)" d="M32.368 22.094c0.014 0 0.014 0 0 0 0.37 0 0.669-0.145 0.882-0.434s0.327-0.694 0.327-1.2c0-0.477-0.1-0.868-0.299-1.142-0.199-0.289-0.484-0.434-0.854-0.434s-0.669 0.145-0.896 0.434c-0.213 0.289-0.327 0.68-0.327 1.171s0.1 0.897 0.313 1.186c0.213 0.26 0.498 0.405 0.854 0.419zM31.884 19.578c0.128-0.174 0.299-0.26 0.526-0.26s0.398 0.087 0.512 0.275c0.128 0.188 0.185 0.477 0.185 0.868 0 0.405-0.071 0.709-0.199 0.897s-0.299 0.289-0.512 0.289c-0.228 0-0.384-0.101-0.512-0.289-0.128-0.202-0.185-0.506-0.185-0.897 0-0.405 0.057-0.709 0.185-0.882z"></path>
<path fill="#c99e71" style="fill: var(--color1, #c99e71)" d="M34.729 21.631v0.419l1.167 0.014v-0.419h-0.37v-0.795h0.185c0.341 0 0.612-0.087 0.797-0.246 0.185-0.174 0.285-0.419 0.285-0.752 0-0.289-0.085-0.506-0.242-0.665s-0.413-0.231-0.74-0.231l-1.039-0.015v0.419h0.327l-0.014 2.285-0.356-0.014zM35.725 20.431h-0.199l0.014-1.070h0.228c0.199 0 0.341 0.043 0.427 0.116s0.128 0.202 0.128 0.405c0 0.202-0.057 0.333-0.142 0.419-0.128 0.087-0.27 0.13-0.455 0.13z"></path>
<path fill="#c99e71" style="fill: var(--color1, #c99e71)" d="M33.762 16.974c0.071-0.058 0.128-0.116 0.199-0.174 0.768-0.694 0.754-1.027-0.071-1.692-1.65-1.316-1.65-1.316-0.469-3.080 0.541-0.824 0.413-1.359-0.512-1.634-1.764-0.535-2.22-0.333-1.394-2.849 0.014-0.043 0.043-0.101 0.057-0.145 0.185-0.68-0.014-1.012-0.726-1.099-0.441-0.058-0.896-0.014-1.337-0.043-0.925-0.043-1.138-0.289-1.167-1.229 0-0.217 0-0.434 0-0.636 0-1.417-0.213-1.591-1.565-1.273-1.85 0.434-1.85 0.434-2.533-1.388-0.441-1.171-0.654-1.244-1.679-0.564-1.665 1.085-1.665 1.085-2.931-0.477-0.74-0.926-1.067-0.926-1.793 0.029-1.295 1.692-1.224 1.634-2.888 0.477-1.053-0.738-1.337-0.593-1.75 0.651-0.47 1.432-0.64 2.082-2.291 1.316-0.114-0.058-0.256-0.043-0.384-0.072-1.095-0.26-1.366-0.101-1.352 1.027 0.014 2.198-0.242 2.184-2.191 2.169-1.039 0-1.28 0.362-0.996 1.345 0.583 2.054 0.583 2.054-1.394 2.777-0.925 0.333-1.095 0.824-0.541 1.62 1.28 1.851 1.309 1.808-0.498 3.138-0.782 0.578-0.782 1.027-0.043 1.634 0.085 0.072 0.171 0.13 0.256 0.203h-3.77v0.593h38.343v-0.593h-4.581v-0.029zM6.274 15.948c0.014-6.956 5.62-12.61 12.463-12.625 6.872 0 12.506 5.727 12.463 12.726 0 0.304-0.014 0.622-0.043 0.926h-4.652c1.394-0.969 2.077-2.343 1.537-3.196-0.299-0.477-0.939-0.68-1.736-0.578 0.028-0.202 0.057-0.405 0.071-0.607 0.028-0.246-0.057-0.492-0.228-0.68s-0.413-0.304-0.669-0.304h-12.947c-0.256 0-0.498 0.116-0.669 0.304s-0.242 0.419-0.228 0.68c0.142 1.663 0.726 3.167 1.608 4.382h-6.929c-0.028-0.333-0.043-0.68-0.043-1.027zM24.841 16.859c0.569-0.824 1.010-1.764 1.28-2.748 0.541-0.13 0.982-0.058 1.138 0.188 0.128 0.202 0.071 0.535-0.142 0.897-0.242 0.405-0.654 0.81-1.167 1.142-0.37 0.246-0.74 0.419-1.11 0.521zM5.236 15.687c0.171-7.592 6.26-13.493 13.673-13.42s13.616 6.464 13.303 14.36c0 0.116-0.014 0.231-0.014 0.347h-0.569c0.028-0.318 0.043-0.651 0.043-0.983 0.014-7.202-5.791-13.117-12.862-13.131-7.156-0.014-12.975 5.857-12.99 13.102 0 0.347 0.014 0.68 0.043 1.012h-0.598c-0.028-0.419-0.028-0.853-0.028-1.287z"></path>
<path fill="#c99e71" style="fill: var(--color1, #c99e71)" d="M0 23.959h6.089c-0.427 1.678-0.299 1.692 1.679 1.75 1.11 0.029 1.337 0.26 1.394 1.359 0.1 2.198 0.1 2.198 2.163 1.591 0.939-0.275 1.28-0.116 1.636 0.795 0.142 0.347 0.213 0.709 0.341 1.056 0.27 0.738 0.654 0.897 1.337 0.506 0.413-0.231 0.768-0.55 1.167-0.795 0.498-0.318 0.967-0.376 1.366 0.202 0.285 0.405 0.598 0.81 0.925 1.186 0.441 0.521 0.854 0.521 1.309 0 0.299-0.333 0.541-0.709 0.825-1.056 0.541-0.665 0.91-0.723 1.608-0.246 0.37 0.246 0.726 0.506 1.11 0.738 0.583 0.376 0.982 0.188 1.209-0.463 0.142-0.405 0.327-0.795 0.441-1.2 0.185-0.723 0.626-0.954 1.295-0.795 0.413 0.101 0.797 0.275 1.195 0.39 0.825 0.246 1.266-0.058 1.309-0.94 0.014-0.419 0.014-0.853 0.014-1.287-0.014-0.651 0.327-0.983 0.939-1.041 0.256-0.029 0.526 0 0.967 0 1.309 0.101 1.693-0.318 1.11-1.764h6.971v-0.593h-38.4v0.607zM28.398 23.959c-2.305 2.878-5.819 4.714-9.703 4.657-3.87 0-7.341-1.822-9.618-4.657h19.321zM18.681 29.657c-4.539 0-8.494-2.27-10.927-5.712h0.74c2.362 3.124 6.075 5.134 10.258 5.134 4.14 0.043 7.868-1.996 10.23-5.134h0.683c-2.49 3.485-6.545 5.785-10.984 5.712z"></path>
</symbol>
<symbol id="icon-play" viewBox="0 0 32 32">
<path d="M24.3 15.559l-11.733-8c-0.164-0.111-0.375-0.123-0.55-0.031s-0.284 0.274-0.284 0.471v16c0 0.198 0.109 0.379 0.284 0.471 0.078 0.042 0.164 0.062 0.249 0.062 0.105 0 0.21-0.031 0.3-0.093l11.733-8c0.146-0.099 0.233-0.264 0.233-0.441s-0.087-0.341-0.233-0.441zM12.8 22.99v-13.981l10.253 6.99-10.253 6.99z"></path>
<path d="M16 0c-8.822 0-16 7.178-16 16s7.178 16 16 16 16-7.178 16-16-7.178-16-16-16zM16 30.933c-8.234 0-14.933-6.699-14.933-14.933s6.699-14.933 14.933-14.933 14.933 6.699 14.933 14.933-6.699 14.933-14.933 14.933z"></path>
</symbol>
<symbol id="icon-star" viewBox="0 0 32 32">
<path fill="#c99e71" style="fill: var(--color1, #c99e71)" d="M16 2.667l4.12 8.347 9.213 1.347-6.667 6.493 1.573 9.173-8.24-4.333-8.24 4.333 1.573-9.173-6.667-6.493 9.213-1.347 4.12-8.347z"></path>
</symbol>
<symbol id="icon-star2" viewBox="0 0 32 32">
<path fill="none" stroke="#c99e71" style="stroke: var(--color1, #c99e71)" stroke-linejoin="round" stroke-linecap="round" stroke-miterlimit="4" stroke-width="3.2" d="M16 2.667l4.12 8.347 9.213 1.347-6.667 6.493 1.573 9.173-8.24-4.333-8.24 4.333 1.573-9.173-6.667-6.493 9.213-1.347 4.12-8.347z"></path>
</symbol>
<symbol id="icon-left" viewBox="0 0 32 32">
<path fill="none" stroke="#fff" style="stroke: var(--color1, #fff)" stroke-linejoin="round" stroke-linecap="round" stroke-miterlimit="4" stroke-width="2" d="M30.667 16h-24"></path>
<path fill="none" stroke="#fff" style="stroke: var(--color1, #fff)" stroke-linejoin="round" stroke-linecap="round" stroke-miterlimit="4" stroke-width="2" d="M16 25.333l-9.333-9.333 9.333-9.333"></path>
</symbol>
<symbol id="icon-right" viewBox="0 0 32 32">
<path stroke-linejoin="round" stroke-linecap="round" stroke-miterlimit="4" stroke-width="2" d="M1.333 16h24"></path>
<path stroke-linejoin="round" stroke-linecap="round" stroke-miterlimit="4" stroke-width="2" d="M16 6.667l9.333 9.333-9.333 9.333"></path>
</symbol>

</defs>
</svg>
